<svg width="158" height="32" viewBox="0 0 158 32" fill="none" xmlns="http://www.w3.org/2000/svg">
<path d="M39.4998 9.34912C41.1186 10.9723 42.2215 13.0412 42.6678 15.2925C43.1144 17.5441 42.8854 19.8774 42.0096 21.9985C41.1333 24.1193 39.6496 25.9322 37.7459 27.2075C35.8426 28.4828 33.6044 29.1636 31.3152 29.1636H11.0125L18.8553 21.2993H31.3152C32.0535 21.2993 32.7755 21.0796 33.3895 20.6685C34.0028 20.2573 34.4809 19.6722 34.7635 18.9888C35.046 18.3048 35.1192 17.5524 34.9754 16.8267C34.9056 16.4742 34.7863 16.1358 34.6219 15.8208C34.4477 15.4871 34.2233 15.1799 33.9549 14.9106L29.6326 10.4927L35.1414 4.96826L39.4998 9.34912ZM31.9998 2.83643L24.157 10.7007H11.575C10.8368 10.7007 10.1146 10.9204 9.50079 11.3315C8.88748 11.7427 8.40929 12.3274 8.12676 13.0112C7.84424 13.6952 7.77104 14.4476 7.91485 15.1733C7.99826 15.5942 8.15228 15.9956 8.36895 16.3599C8.52629 16.6242 8.71616 16.8695 8.93536 17.0894L13.3182 21.5688L7.80938 27.0933L3.39044 22.6509C1.77171 21.0277 0.668765 18.9588 0.222467 16.7075C-0.224141 14.4559 0.00488349 12.1221 0.88067 10.0015C1.75689 7.88078 3.24071 6.06782 5.14434 4.79248C7.04758 3.51724 9.28593 2.83648 11.575 2.83643H31.9998Z" fill="white"/>
<path d="M56.0399 30V4.47087H65.7855C70.7642 4.47087 73.8008 7.01319 73.8008 11.2151C73.8008 14.1458 72.5297 16.1232 69.9874 17.1825C72.8122 18.1005 74.2599 20.1485 74.2599 23.1852C74.2599 27.4224 71.1879 30 66.1386 30H56.0399ZM65.5736 7.54284H59.5003V15.7348H65.7855C68.6456 15.7348 70.2698 14.1811 70.2698 11.5329C70.2698 8.99055 68.575 7.54284 65.5736 7.54284ZM66.0679 18.7361H59.5003V26.928H66.0679C69.034 26.928 70.6936 25.4097 70.6936 22.7614C70.6936 20.2191 68.9987 18.7361 66.0679 18.7361ZM85.1238 30.4237C80.0391 30.4237 76.5434 26.7515 76.5434 21.3844C76.5434 15.9819 79.9685 12.2391 84.9825 12.2391C89.8906 12.2391 93.1038 15.6288 93.1038 20.7488V21.9846L79.7566 22.0199C80.0038 25.6569 81.9106 27.6695 85.1944 27.6695C87.772 27.6695 89.4669 26.6102 90.0319 24.6329H93.1391C92.2917 28.3404 89.3963 30.4237 85.1238 30.4237ZM84.9825 15.0286C82.0871 15.0286 80.251 16.7587 79.8273 19.7954H89.7847C89.7847 16.9353 87.9133 15.0286 84.9825 15.0286ZM100.483 4.47087V26.7868H111.712V30H97.023V4.47087H100.483ZM116.177 8.63745C114.977 8.63745 113.988 7.64877 113.988 6.44823C113.988 5.21238 114.977 4.25901 116.177 4.25901C117.378 4.25901 118.366 5.21238 118.366 6.44823C118.366 7.64877 117.378 8.63745 116.177 8.63745ZM114.553 30V12.7334H117.872V30H114.553ZM125.657 30H122.338V12.7334H125.339L125.692 15.3817C126.787 13.4043 128.976 12.2391 131.412 12.2391C135.967 12.2391 138.051 15.0286 138.051 19.4423V30H134.732V20.1838C134.732 16.6881 133.107 15.2757 130.565 15.2757C127.458 15.2757 125.657 17.5003 125.657 20.8547V30ZM145.685 30H142.365V4.01184H145.685V20.8547L153.347 12.7334H157.513L150.91 19.6189L157.478 30H153.665L148.615 22.0199L145.685 25.0919V30Z" fill="white"/>
</svg>
